<mxfile host="app.diagrams.net" modified="2021-05-20T16:26:53.210Z" agent="5.0 (Windows)" etag="re1YpVz8pjx6KrdtbiRU" version="14.6.13" type="github" pages="2">
  <diagram id="MYtHyyAWCHNzlXezhlRJ" name="Page-1">
    <mxGraphModel dx="1438" dy="547" grid="0" gridSize="10" guides="1" tooltips="1" connect="1" arrows="1" fold="1" page="0" pageScale="1" pageWidth="850" pageHeight="1100" math="0" shadow="0">
      <root>
        <mxCell id="0" />
        <mxCell id="1" parent="0" />
        <mxCell id="aZHeh1-H1kW6ti1Y_17A-1" value="" style="endArrow=none;html=1;" edge="1" parent="1">
          <mxGeometry width="50" height="50" relative="1" as="geometry">
            <mxPoint x="306" y="592" as="sourcePoint" />
            <mxPoint x="306" y="262" as="targetPoint" />
          </mxGeometry>
        </mxCell>
        <mxCell id="aZHeh1-H1kW6ti1Y_17A-2" value="Redis Server" style="text;html=1;strokeColor=none;fillColor=none;align=center;verticalAlign=middle;whiteSpace=wrap;rounded=0;" vertex="1" parent="1">
          <mxGeometry x="7" y="260" width="199" height="31" as="geometry" />
        </mxCell>
        <mxCell id="aZHeh1-H1kW6ti1Y_17A-4" value="Redis client" style="text;html=1;strokeColor=none;fillColor=none;align=center;verticalAlign=middle;whiteSpace=wrap;rounded=0;" vertex="1" parent="1">
          <mxGeometry x="396" y="260" width="199" height="31" as="geometry" />
        </mxCell>
        <mxCell id="aZHeh1-H1kW6ti1Y_17A-17" style="edgeStyle=orthogonalEdgeStyle;rounded=0;orthogonalLoop=1;jettySize=auto;html=1;exitX=0.5;exitY=1;exitDx=0;exitDy=0;" edge="1" parent="1" source="aZHeh1-H1kW6ti1Y_17A-5" target="aZHeh1-H1kW6ti1Y_17A-6">
          <mxGeometry relative="1" as="geometry" />
        </mxCell>
        <mxCell id="aZHeh1-H1kW6ti1Y_17A-5" value="Key" style="rhombus;whiteSpace=wrap;html=1;" vertex="1" parent="1">
          <mxGeometry x="73.5" y="313" width="66" height="61" as="geometry" />
        </mxCell>
        <mxCell id="aZHeh1-H1kW6ti1Y_17A-22" value="sign" style="edgeStyle=none;rounded=0;orthogonalLoop=1;jettySize=auto;html=1;exitX=0.5;exitY=1;exitDx=0;exitDy=0;fillColor=#d5e8d4;strokeColor=#82b366;" edge="1" parent="1" source="aZHeh1-H1kW6ti1Y_17A-6">
          <mxGeometry relative="1" as="geometry">
            <mxPoint x="461" y="574" as="targetPoint" />
          </mxGeometry>
        </mxCell>
        <mxCell id="aZHeh1-H1kW6ti1Y_17A-24" value="verify" style="edgeStyle=none;rounded=0;orthogonalLoop=1;jettySize=auto;html=1;exitX=1;exitY=0;exitDx=0;exitDy=0;" edge="1" parent="1" source="aZHeh1-H1kW6ti1Y_17A-6">
          <mxGeometry relative="1" as="geometry">
            <mxPoint x="172" y="374" as="targetPoint" />
          </mxGeometry>
        </mxCell>
        <mxCell id="aZHeh1-H1kW6ti1Y_17A-6" value="&lt;div&gt;CA&lt;/div&gt;2" style="ellipse;whiteSpace=wrap;html=1;" vertex="1" parent="1">
          <mxGeometry x="56" y="402" width="101" height="62" as="geometry" />
        </mxCell>
        <mxCell id="aZHeh1-H1kW6ti1Y_17A-20" value="send" style="edgeStyle=none;rounded=0;orthogonalLoop=1;jettySize=auto;html=1;exitX=1;exitY=0;exitDx=0;exitDy=0;fillColor=#dae8fc;strokeColor=#6c8ebf;" edge="1" parent="1" source="aZHeh1-H1kW6ti1Y_17A-7">
          <mxGeometry relative="1" as="geometry">
            <mxPoint x="442" y="383" as="targetPoint" />
          </mxGeometry>
        </mxCell>
        <mxCell id="aZHeh1-H1kW6ti1Y_17A-7" value="&lt;div&gt;Cert&lt;/div&gt;&lt;div&gt;3&lt;/div&gt;" style="rounded=0;whiteSpace=wrap;html=1;" vertex="1" parent="1">
          <mxGeometry x="72.5" y="511" width="67" height="54" as="geometry" />
        </mxCell>
        <mxCell id="aZHeh1-H1kW6ti1Y_17A-18" style="edgeStyle=orthogonalEdgeStyle;rounded=0;orthogonalLoop=1;jettySize=auto;html=1;exitX=0.5;exitY=1;exitDx=0;exitDy=0;entryX=0.5;entryY=0;entryDx=0;entryDy=0;" edge="1" parent="1" source="aZHeh1-H1kW6ti1Y_17A-8" target="aZHeh1-H1kW6ti1Y_17A-9">
          <mxGeometry relative="1" as="geometry" />
        </mxCell>
        <mxCell id="aZHeh1-H1kW6ti1Y_17A-28" style="edgeStyle=none;rounded=0;orthogonalLoop=1;jettySize=auto;html=1;exitX=1;exitY=0.5;exitDx=0;exitDy=0;dashed=1;entryX=0;entryY=0;entryDx=0;entryDy=0;" edge="1" parent="1" source="aZHeh1-H1kW6ti1Y_17A-8" target="aZHeh1-H1kW6ti1Y_17A-26">
          <mxGeometry relative="1" as="geometry" />
        </mxCell>
        <mxCell id="aZHeh1-H1kW6ti1Y_17A-8" value="Key" style="rhombus;whiteSpace=wrap;html=1;" vertex="1" parent="1">
          <mxGeometry x="462.5" y="321" width="66" height="61" as="geometry" />
        </mxCell>
        <mxCell id="aZHeh1-H1kW6ti1Y_17A-19" value="sign" style="rounded=0;orthogonalLoop=1;jettySize=auto;html=1;exitX=0.5;exitY=1;exitDx=0;exitDy=0;entryX=1;entryY=1;entryDx=0;entryDy=0;fillColor=#d5e8d4;strokeColor=#82b366;" edge="1" parent="1" source="aZHeh1-H1kW6ti1Y_17A-9" target="aZHeh1-H1kW6ti1Y_17A-7">
          <mxGeometry relative="1" as="geometry" />
        </mxCell>
        <mxCell id="aZHeh1-H1kW6ti1Y_17A-21" value="verfify" style="edgeStyle=none;rounded=0;orthogonalLoop=1;jettySize=auto;html=1;exitX=0;exitY=0;exitDx=0;exitDy=0;" edge="1" parent="1" source="aZHeh1-H1kW6ti1Y_17A-9">
          <mxGeometry relative="1" as="geometry">
            <mxPoint x="422" y="394" as="targetPoint" />
          </mxGeometry>
        </mxCell>
        <mxCell id="aZHeh1-H1kW6ti1Y_17A-9" value="&lt;div&gt;CA&lt;/div&gt;&lt;div&gt;1&lt;br&gt;&lt;/div&gt;" style="ellipse;whiteSpace=wrap;html=1;" vertex="1" parent="1">
          <mxGeometry x="445" y="410" width="101" height="62" as="geometry" />
        </mxCell>
        <mxCell id="aZHeh1-H1kW6ti1Y_17A-23" value="send" style="edgeStyle=none;rounded=0;orthogonalLoop=1;jettySize=auto;html=1;exitX=0.5;exitY=0;exitDx=0;exitDy=0;fillColor=#dae8fc;strokeColor=#6c8ebf;" edge="1" parent="1" source="aZHeh1-H1kW6ti1Y_17A-10">
          <mxGeometry relative="1" as="geometry">
            <mxPoint x="158" y="367" as="targetPoint" />
          </mxGeometry>
        </mxCell>
        <mxCell id="aZHeh1-H1kW6ti1Y_17A-10" value="&lt;div&gt;Cert&lt;/div&gt;4" style="rounded=0;whiteSpace=wrap;html=1;" vertex="1" parent="1">
          <mxGeometry x="461.5" y="519" width="67" height="54" as="geometry" />
        </mxCell>
        <mxCell id="aZHeh1-H1kW6ti1Y_17A-11" value="Redis server key" style="text;html=1;strokeColor=none;fillColor=none;align=center;verticalAlign=middle;whiteSpace=wrap;rounded=0;" vertex="1" parent="1">
          <mxGeometry x="-85" y="329" width="109" height="20" as="geometry" />
        </mxCell>
        <mxCell id="aZHeh1-H1kW6ti1Y_17A-12" value="Redis server CA" style="text;html=1;strokeColor=none;fillColor=none;align=center;verticalAlign=middle;whiteSpace=wrap;rounded=0;" vertex="1" parent="1">
          <mxGeometry x="-92" y="423" width="109" height="20" as="geometry" />
        </mxCell>
        <mxCell id="aZHeh1-H1kW6ti1Y_17A-13" value="Redis server cert" style="text;html=1;strokeColor=none;fillColor=none;align=center;verticalAlign=middle;whiteSpace=wrap;rounded=0;" vertex="1" parent="1">
          <mxGeometry x="-88" y="517" width="109" height="20" as="geometry" />
        </mxCell>
        <mxCell id="aZHeh1-H1kW6ti1Y_17A-14" value="redis client key" style="text;html=1;strokeColor=none;fillColor=none;align=center;verticalAlign=middle;whiteSpace=wrap;rounded=0;" vertex="1" parent="1">
          <mxGeometry x="548" y="331" width="140" height="21" as="geometry" />
        </mxCell>
        <mxCell id="aZHeh1-H1kW6ti1Y_17A-15" value="redis client CA" style="text;html=1;strokeColor=none;fillColor=none;align=center;verticalAlign=middle;whiteSpace=wrap;rounded=0;" vertex="1" parent="1">
          <mxGeometry x="546" y="430.5" width="140" height="21" as="geometry" />
        </mxCell>
        <mxCell id="aZHeh1-H1kW6ti1Y_17A-16" value="redis client cert" style="text;html=1;strokeColor=none;fillColor=none;align=center;verticalAlign=middle;whiteSpace=wrap;rounded=0;" vertex="1" parent="1">
          <mxGeometry x="540" y="535.5" width="140" height="21" as="geometry" />
        </mxCell>
        <mxCell id="aZHeh1-H1kW6ti1Y_17A-25" value="&lt;div&gt;Key: is private key&lt;/div&gt;&lt;div&gt;both ca and cert contains public key and signature&lt;br&gt;&lt;/div&gt;&lt;div&gt;ca contains more information:&amp;nbsp; X509v3 extensions:&lt;br&gt;&lt;/div&gt;&lt;div&gt;&lt;br&gt;&lt;/div&gt;" style="text;html=1;strokeColor=none;fillColor=none;align=left;verticalAlign=middle;whiteSpace=wrap;rounded=0;" vertex="1" parent="1">
          <mxGeometry x="160" y="663" width="285" height="20" as="geometry" />
        </mxCell>
        <mxCell id="aZHeh1-H1kW6ti1Y_17A-31" style="edgeStyle=none;rounded=0;orthogonalLoop=1;jettySize=auto;html=1;exitX=0;exitY=1;exitDx=0;exitDy=0;dashed=1;" edge="1" parent="1" source="aZHeh1-H1kW6ti1Y_17A-26">
          <mxGeometry relative="1" as="geometry">
            <mxPoint x="530" y="546" as="targetPoint" />
          </mxGeometry>
        </mxCell>
        <mxCell id="aZHeh1-H1kW6ti1Y_17A-26" value="&lt;div&gt;csr&lt;/div&gt;&lt;div&gt;CN=redis client&lt;/div&gt;&lt;div&gt;4&lt;br&gt;&lt;/div&gt;" style="ellipse;whiteSpace=wrap;html=1;aspect=fixed;align=center;dashed=1;" vertex="1" parent="1">
          <mxGeometry x="671" y="398" width="97" height="97" as="geometry" />
        </mxCell>
      </root>
    </mxGraphModel>
  </diagram>
  <diagram id="Mrr-WFnJxW-NYC5VzTvs" name="3sets">
    <mxGraphModel dx="1438" dy="547" grid="0" gridSize="10" guides="1" tooltips="1" connect="1" arrows="1" fold="1" page="0" pageScale="1" pageWidth="850" pageHeight="1100" math="0" shadow="0">
      <root>
        <mxCell id="mjHRiP_EYtC0X5nmwDpc-0" />
        <mxCell id="mjHRiP_EYtC0X5nmwDpc-1" parent="mjHRiP_EYtC0X5nmwDpc-0" />
        <mxCell id="hNuSFW_zgi8dftmWshvH-0" value="" style="endArrow=none;html=1;" edge="1" parent="mjHRiP_EYtC0X5nmwDpc-1">
          <mxGeometry width="50" height="50" relative="1" as="geometry">
            <mxPoint x="306" y="592" as="sourcePoint" />
            <mxPoint x="306" y="262" as="targetPoint" />
          </mxGeometry>
        </mxCell>
        <mxCell id="hNuSFW_zgi8dftmWshvH-1" value="Redis Server" style="text;html=1;strokeColor=none;fillColor=none;align=center;verticalAlign=middle;whiteSpace=wrap;rounded=0;" vertex="1" parent="mjHRiP_EYtC0X5nmwDpc-1">
          <mxGeometry x="7" y="277" width="199" height="31" as="geometry" />
        </mxCell>
        <mxCell id="hNuSFW_zgi8dftmWshvH-2" value="Redis Client" style="text;html=1;strokeColor=none;fillColor=none;align=center;verticalAlign=middle;whiteSpace=wrap;rounded=0;" vertex="1" parent="mjHRiP_EYtC0X5nmwDpc-1">
          <mxGeometry x="456" y="282" width="199" height="31" as="geometry" />
        </mxCell>
        <mxCell id="hNuSFW_zgi8dftmWshvH-3" style="edgeStyle=orthogonalEdgeStyle;rounded=0;orthogonalLoop=1;jettySize=auto;html=1;exitX=0.5;exitY=1;exitDx=0;exitDy=0;" edge="1" parent="mjHRiP_EYtC0X5nmwDpc-1" source="hNuSFW_zgi8dftmWshvH-4" target="hNuSFW_zgi8dftmWshvH-7">
          <mxGeometry relative="1" as="geometry" />
        </mxCell>
        <mxCell id="hNuSFW_zgi8dftmWshvH-4" value="&lt;div&gt;Key&lt;/div&gt;4" style="rhombus;whiteSpace=wrap;html=1;" vertex="1" parent="mjHRiP_EYtC0X5nmwDpc-1">
          <mxGeometry x="73.5" y="313" width="66" height="61" as="geometry" />
        </mxCell>
        <mxCell id="hNuSFW_zgi8dftmWshvH-5" value="sign" style="edgeStyle=none;rounded=0;orthogonalLoop=1;jettySize=auto;html=1;exitX=0.5;exitY=1;exitDx=0;exitDy=0;fillColor=#d5e8d4;strokeColor=#82b366;entryX=0;entryY=1;entryDx=0;entryDy=0;" edge="1" parent="mjHRiP_EYtC0X5nmwDpc-1" source="hNuSFW_zgi8dftmWshvH-7" target="hNuSFW_zgi8dftmWshvH-17">
          <mxGeometry relative="1" as="geometry">
            <mxPoint x="461" y="574" as="targetPoint" />
          </mxGeometry>
        </mxCell>
        <mxCell id="hNuSFW_zgi8dftmWshvH-6" value="verify" style="edgeStyle=none;rounded=0;orthogonalLoop=1;jettySize=auto;html=1;exitX=1;exitY=0;exitDx=0;exitDy=0;" edge="1" parent="mjHRiP_EYtC0X5nmwDpc-1" source="hNuSFW_zgi8dftmWshvH-7">
          <mxGeometry relative="1" as="geometry">
            <mxPoint x="172" y="374" as="targetPoint" />
          </mxGeometry>
        </mxCell>
        <mxCell id="hNuSFW_zgi8dftmWshvH-7" value="&lt;div&gt;CA&lt;/div&gt;5" style="ellipse;whiteSpace=wrap;html=1;" vertex="1" parent="mjHRiP_EYtC0X5nmwDpc-1">
          <mxGeometry x="56" y="402" width="101" height="62" as="geometry" />
        </mxCell>
        <mxCell id="hNuSFW_zgi8dftmWshvH-8" value="send" style="edgeStyle=none;rounded=0;orthogonalLoop=1;jettySize=auto;html=1;exitX=1;exitY=0;exitDx=0;exitDy=0;fillColor=#dae8fc;strokeColor=#6c8ebf;" edge="1" parent="mjHRiP_EYtC0X5nmwDpc-1" source="hNuSFW_zgi8dftmWshvH-9">
          <mxGeometry relative="1" as="geometry">
            <mxPoint x="367" y="127" as="targetPoint" />
          </mxGeometry>
        </mxCell>
        <mxCell id="hNuSFW_zgi8dftmWshvH-9" value="&lt;div&gt;Cert&lt;/div&gt;&lt;div&gt;6&lt;br&gt;&lt;/div&gt;" style="rounded=0;whiteSpace=wrap;html=1;" vertex="1" parent="mjHRiP_EYtC0X5nmwDpc-1">
          <mxGeometry x="66" y="492" width="67" height="54" as="geometry" />
        </mxCell>
        <mxCell id="hNuSFW_zgi8dftmWshvH-10" style="edgeStyle=orthogonalEdgeStyle;rounded=0;orthogonalLoop=1;jettySize=auto;html=1;exitX=0.5;exitY=1;exitDx=0;exitDy=0;entryX=0.5;entryY=0;entryDx=0;entryDy=0;" edge="1" parent="mjHRiP_EYtC0X5nmwDpc-1" source="hNuSFW_zgi8dftmWshvH-12" target="hNuSFW_zgi8dftmWshvH-15">
          <mxGeometry relative="1" as="geometry" />
        </mxCell>
        <mxCell id="hNuSFW_zgi8dftmWshvH-11" style="edgeStyle=none;rounded=0;orthogonalLoop=1;jettySize=auto;html=1;exitX=1;exitY=0.5;exitDx=0;exitDy=0;dashed=1;entryX=0;entryY=0;entryDx=0;entryDy=0;" edge="1" parent="mjHRiP_EYtC0X5nmwDpc-1" source="hNuSFW_zgi8dftmWshvH-12" target="hNuSFW_zgi8dftmWshvH-25">
          <mxGeometry relative="1" as="geometry" />
        </mxCell>
        <mxCell id="hNuSFW_zgi8dftmWshvH-12" value="&lt;div&gt;Key&lt;/div&gt;&lt;div&gt;7&lt;br&gt;&lt;/div&gt;" style="rhombus;whiteSpace=wrap;html=1;" vertex="1" parent="mjHRiP_EYtC0X5nmwDpc-1">
          <mxGeometry x="517.5" y="320.5" width="66" height="61" as="geometry" />
        </mxCell>
        <mxCell id="hNuSFW_zgi8dftmWshvH-13" value="sign" style="rounded=0;orthogonalLoop=1;jettySize=auto;html=1;exitX=0.5;exitY=1;exitDx=0;exitDy=0;entryX=1;entryY=1;entryDx=0;entryDy=0;fillColor=#d5e8d4;strokeColor=#82b366;" edge="1" parent="mjHRiP_EYtC0X5nmwDpc-1" source="hNuSFW_zgi8dftmWshvH-29" target="hNuSFW_zgi8dftmWshvH-9">
          <mxGeometry relative="1" as="geometry" />
        </mxCell>
        <mxCell id="hNuSFW_zgi8dftmWshvH-14" value="verfify" style="edgeStyle=none;rounded=0;orthogonalLoop=1;jettySize=auto;html=1;exitX=0;exitY=0;exitDx=0;exitDy=0;" edge="1" parent="mjHRiP_EYtC0X5nmwDpc-1" source="hNuSFW_zgi8dftmWshvH-15">
          <mxGeometry relative="1" as="geometry">
            <mxPoint x="477" y="393.5" as="targetPoint" />
          </mxGeometry>
        </mxCell>
        <mxCell id="hNuSFW_zgi8dftmWshvH-15" value="&lt;div&gt;CA&lt;/div&gt;&lt;div&gt;8&lt;br&gt;&lt;/div&gt;" style="ellipse;whiteSpace=wrap;html=1;fillColor=#f5f5f5;strokeColor=#666666;fontColor=#333333;" vertex="1" parent="mjHRiP_EYtC0X5nmwDpc-1">
          <mxGeometry x="500" y="409.5" width="101" height="62" as="geometry" />
        </mxCell>
        <mxCell id="hNuSFW_zgi8dftmWshvH-16" value="send" style="edgeStyle=none;rounded=0;orthogonalLoop=1;jettySize=auto;html=1;exitX=0.5;exitY=0;exitDx=0;exitDy=0;fillColor=#dae8fc;strokeColor=#6c8ebf;" edge="1" parent="mjHRiP_EYtC0X5nmwDpc-1" source="hNuSFW_zgi8dftmWshvH-17">
          <mxGeometry relative="1" as="geometry">
            <mxPoint x="158" y="367" as="targetPoint" />
          </mxGeometry>
        </mxCell>
        <mxCell id="hNuSFW_zgi8dftmWshvH-17" value="&lt;div&gt;Cert&lt;/div&gt;9" style="rounded=0;whiteSpace=wrap;html=1;" vertex="1" parent="mjHRiP_EYtC0X5nmwDpc-1">
          <mxGeometry x="517.5" y="500" width="67" height="54" as="geometry" />
        </mxCell>
        <mxCell id="hNuSFW_zgi8dftmWshvH-18" value="Redis server key" style="text;html=1;strokeColor=none;fillColor=none;align=center;verticalAlign=middle;whiteSpace=wrap;rounded=0;" vertex="1" parent="mjHRiP_EYtC0X5nmwDpc-1">
          <mxGeometry x="-85" y="329" width="109" height="20" as="geometry" />
        </mxCell>
        <mxCell id="hNuSFW_zgi8dftmWshvH-19" value="Redis server CA" style="text;html=1;strokeColor=none;fillColor=none;align=center;verticalAlign=middle;whiteSpace=wrap;rounded=0;" vertex="1" parent="mjHRiP_EYtC0X5nmwDpc-1">
          <mxGeometry x="-92" y="423" width="109" height="20" as="geometry" />
        </mxCell>
        <mxCell id="hNuSFW_zgi8dftmWshvH-20" value="Redis server cert" style="text;html=1;strokeColor=none;fillColor=none;align=center;verticalAlign=middle;whiteSpace=wrap;rounded=0;" vertex="1" parent="mjHRiP_EYtC0X5nmwDpc-1">
          <mxGeometry x="-88" y="517" width="109" height="20" as="geometry" />
        </mxCell>
        <mxCell id="hNuSFW_zgi8dftmWshvH-21" value="redis client key" style="text;html=1;strokeColor=none;fillColor=none;align=center;verticalAlign=middle;whiteSpace=wrap;rounded=0;" vertex="1" parent="mjHRiP_EYtC0X5nmwDpc-1">
          <mxGeometry x="588" y="341" width="140" height="21" as="geometry" />
        </mxCell>
        <mxCell id="hNuSFW_zgi8dftmWshvH-22" value="redis client CA" style="text;html=1;strokeColor=none;fillColor=none;align=center;verticalAlign=middle;whiteSpace=wrap;rounded=0;" vertex="1" parent="mjHRiP_EYtC0X5nmwDpc-1">
          <mxGeometry x="592" y="430.5" width="140" height="21" as="geometry" />
        </mxCell>
        <mxCell id="hNuSFW_zgi8dftmWshvH-23" value="redis client cert" style="text;html=1;strokeColor=none;fillColor=none;align=center;verticalAlign=middle;whiteSpace=wrap;rounded=0;" vertex="1" parent="mjHRiP_EYtC0X5nmwDpc-1">
          <mxGeometry x="592" y="562" width="140" height="21" as="geometry" />
        </mxCell>
        <mxCell id="hNuSFW_zgi8dftmWshvH-24" style="edgeStyle=none;rounded=0;orthogonalLoop=1;jettySize=auto;html=1;exitX=0;exitY=1;exitDx=0;exitDy=0;dashed=1;entryX=1;entryY=1;entryDx=0;entryDy=0;" edge="1" parent="mjHRiP_EYtC0X5nmwDpc-1" source="hNuSFW_zgi8dftmWshvH-25" target="hNuSFW_zgi8dftmWshvH-17">
          <mxGeometry relative="1" as="geometry">
            <mxPoint x="530" y="546" as="targetPoint" />
          </mxGeometry>
        </mxCell>
        <mxCell id="hNuSFW_zgi8dftmWshvH-25" value="&lt;div&gt;csr&lt;/div&gt;&lt;div&gt;CN=redis-client&lt;/div&gt;&lt;div&gt;4&lt;br&gt;&lt;/div&gt;" style="ellipse;whiteSpace=wrap;html=1;aspect=fixed;align=center;dashed=1;" vertex="1" parent="mjHRiP_EYtC0X5nmwDpc-1">
          <mxGeometry x="739" y="398" width="97" height="97" as="geometry" />
        </mxCell>
        <mxCell id="hNuSFW_zgi8dftmWshvH-26" style="edgeStyle=orthogonalEdgeStyle;rounded=0;orthogonalLoop=1;jettySize=auto;html=1;exitX=0.5;exitY=1;exitDx=0;exitDy=0;entryX=0.5;entryY=0;entryDx=0;entryDy=0;" edge="1" parent="mjHRiP_EYtC0X5nmwDpc-1" source="hNuSFW_zgi8dftmWshvH-27" target="hNuSFW_zgi8dftmWshvH-29">
          <mxGeometry relative="1" as="geometry" />
        </mxCell>
        <mxCell id="hNuSFW_zgi8dftmWshvH-27" value="&lt;div&gt;Key&lt;/div&gt;1" style="rhombus;whiteSpace=wrap;html=1;" vertex="1" parent="mjHRiP_EYtC0X5nmwDpc-1">
          <mxGeometry x="372.5" y="48" width="66" height="61" as="geometry" />
        </mxCell>
        <mxCell id="hNuSFW_zgi8dftmWshvH-29" value="&lt;div&gt;CA&lt;/div&gt;&lt;div&gt;2&lt;br&gt;&lt;/div&gt;" style="ellipse;whiteSpace=wrap;html=1;" vertex="1" parent="mjHRiP_EYtC0X5nmwDpc-1">
          <mxGeometry x="355" y="137" width="101" height="62" as="geometry" />
        </mxCell>
        <mxCell id="hNuSFW_zgi8dftmWshvH-30" value="&lt;div&gt;Cert&lt;/div&gt;3" style="rounded=0;whiteSpace=wrap;html=1;" vertex="1" parent="mjHRiP_EYtC0X5nmwDpc-1">
          <mxGeometry x="371.5" y="225" width="67" height="54" as="geometry" />
        </mxCell>
        <mxCell id="hNuSFW_zgi8dftmWshvH-31" value="&lt;div&gt;SIPTLS&lt;/div&gt;" style="text;html=1;strokeColor=none;fillColor=none;align=center;verticalAlign=middle;whiteSpace=wrap;rounded=0;dashed=1;" vertex="1" parent="mjHRiP_EYtC0X5nmwDpc-1">
          <mxGeometry x="382" y="19" width="40" height="20" as="geometry" />
        </mxCell>
      </root>
    </mxGraphModel>
  </diagram>
</mxfile>
